<?xml version="1.0" encoding="utf-8"?>
<!-- Generator: Adobe Illustrator 26.5.0, SVG Export Plug-In . SVG Version: 6.00 Build 0)  -->
<svg version="1.0" id="Layer_1" xmlns="http://www.w3.org/2000/svg" xmlns:xlink="http://www.w3.org/1999/xlink" x="0px" y="0px"
	 viewBox="0 0 100 105.4" style="enable-background:new 0 0 100 105.4;" xml:space="preserve">
<style type="text/css">
	.st0{fill:#E12127;}
</style>
<g>
	<rect x="18.1" y="55.7" class="st0" width="9.8" height="9.8"/>
	<rect x="45.2" y="55.7" class="st0" width="9.8" height="9.8"/>
	<rect x="72.3" y="55.7" class="st0" width="9.8" height="9.8"/>
	<rect x="18.1" y="80.1" class="st0" width="9.8" height="9.8"/>
	<rect x="45.2" y="80.1" class="st0" width="9.8" height="9.8"/>
	<rect x="72.3" y="80.1" class="st0" width="9.8" height="9.8"/>
	<path class="st0" d="M99.2,94.4l0.8-83.8H84.4C84.2,4.8,79.3,0,73.3,0S62.5,4.8,62.3,10.7H38C37.8,4.8,33,0,27,0
		S16.1,4.8,15.9,10.7H0.3L0.2,94.2v0C0.1,94.7,0,95.1,0,95.7c0,0.5,0.1,1,0.2,1.4v0h0c0,0.2,0,0.5,0.1,0.7c0.9,3.9,4.1,6.9,8.1,7.5
		c0.5,0.1,1,0.1,1.5,0.1c0.3,0,0.7,0,1-0.1h77.7c0.3,0,0.7,0.1,1,0.1c0.5,0,1,0,1.5-0.1c4-0.6,7.2-3.6,8-7.4c0.1-0.2,0-0.5,0.1-0.8
		h0l0-0.1c0.1-0.5,0.2-0.9,0.2-1.4C99.3,95.2,99.2,94.8,99.2,94.4z M68.6,11.1c0-2.6,2.1-4.7,4.7-4.7s4.7,2.1,4.7,4.7v11.5
		c0,2.6-2.1,4.7-4.7,4.7s-4.7-2.1-4.7-4.7V11.1z M22.2,11.1c0-2.6,2.1-4.7,4.7-4.7s4.7,2.1,4.7,4.7v11.5c0,2.6-2.1,4.7-4.7,4.7
		s-4.7-2.1-4.7-4.7V11.1z M15.9,17.1v5.6c0,6.1,5,11.1,11.1,11.1s11.1-5,11.1-11.1v-5.6h24.1v5.6c0,6.1,5,11.1,11.1,11.1
		s11.1-5,11.1-11.1v-5.6h9.1l-0.2,21H6.4l0.2-21H15.9z M89.7,99H9.2c-1.3-0.2-2.3-1.2-2.6-2.4l-0.2-52h86.9l-0.5,49.7v2.3
		C92.4,97.7,91.4,98.7,89.7,99z"/>
</g>
</svg>
