<?xml version="1.0" encoding="utf-8"?>
<!-- Generator: Adobe Illustrator 26.5.0, SVG Export Plug-In . SVG Version: 6.00 Build 0)  -->
<svg version="1.0" id="Layer_1" xmlns="http://www.w3.org/2000/svg" xmlns:xlink="http://www.w3.org/1999/xlink" x="0px" y="0px"
	 viewBox="0 0 40 150" style="enable-background:new 0 0 40 150;" xml:space="preserve">
<style type="text/css">
	.st0{fill:#FFFFFF;}
</style>
<rect width="40" height="150"/>
<g>
	<path class="st0" d="M22.9,119.8c2.2,0,3.5,1.8,3.5,5.1v6.6H13.6v-6.3c0-3.2,1.3-4.9,3.3-4.9c1.3,0,2.3,0.7,2.8,1.7
		C20.2,120.7,21.3,119.8,22.9,119.8z M15.8,128.6h3v-3c0-1.4-0.5-2.2-1.5-2.2c-1,0-1.5,0.8-1.5,2.2V128.6z M22.6,122.8
		c-1.1,0-1.6,0.8-1.6,2.4v3.5h3.2v-3.5C24.2,123.6,23.7,122.8,22.6,122.8z"/>
	<path class="st0" d="M20,118.3c-3.8,0-6.6-3-6.6-7c0-4,2.8-7,6.6-7c3.8,0,6.6,3,6.6,7C26.6,115.3,23.8,118.3,20,118.3z M20,107.3
		c-2.4,0-4.1,1.7-4.1,4c0,2.3,1.7,4,4.1,4c2.4,0,4.1-1.7,4.1-4C24.1,109,22.4,107.3,20,107.3z"/>
	<path class="st0" d="M20,102.8c-3.8,0-6.6-3-6.6-7c0-4,2.8-7,6.6-7c3.8,0,6.6,3,6.6,7C26.6,99.8,23.8,102.8,20,102.8z M20,91.8
		c-2.4,0-4.1,1.7-4.1,4c0,2.3,1.7,4,4.1,4c2.4,0,4.1-1.7,4.1-4C24.1,93.5,22.4,91.8,20,91.8z"/>
	<path class="st0" d="M21.4,81.9l1.8,1.7h3.2v3H13.6v-3h6l-6-5.7v-3.3l5.7,5.3l7.1-5.6v3.5L21.4,81.9z"/>
	<path class="st0" d="M13.6,56h12.8v2.4l-7.8,6.4h7.8v2.9H13.6v-2.5l7.8-6.4h-7.8V56z"/>
	<path class="st0" d="M20,53.7c-3.8,0-6.6-3-6.6-7c0-4,2.8-7,6.6-7c3.8,0,6.6,3,6.6,7C26.6,50.8,23.8,53.7,20,53.7z M20,42.7
		c-2.4,0-4.1,1.7-4.1,4c0,2.3,1.7,4,4.1,4c2.4,0,4.1-1.7,4.1-4C24.1,44.4,22.4,42.7,20,42.7z"/>
	<path class="st0" d="M13.6,18.5l12.8,4.2v3.2l-8.7,2.8l8.7,2.9v3.2L13.6,39v-3.1l9-2.9l-9-3v-2.8l9.1-2.9l-9.1-3V18.5z"/>
</g>
</svg>
